<?xml version="1.0" encoding="UTF-8"?>
<svg id="Layer_6" data-name="Layer 6" xmlns="http://www.w3.org/2000/svg" viewBox="0 0 1920 1080">
  <path d="M968.05,620.06c1.65-19.5,4.5-48.87,5.1-59.82-1.02.07-2.03.15-3.05.22-3.98,8.17-10.32,24.27-10.32,24.27,0,0,2.51-11.03,5.72-23.95-34.15,2.37-67.69,3.96-92.21,1.88-57.89-4.91-50.85-22.06-87.47-19.45-8.65.62-26.94,3.75-50.56,7.33,23.21,36.48,43.97,58.94,47.61,88.73.32,2.6.56,5.39.74,8.33,24.52-2.11,45.84-6.76,60.9-14.32,44.76-22.47,80.4-15.29,123.53-13.23Z"/>
  <path d="M889.86,548.83c29.67,5.51,54.87,5.82,77.61,4.13,3.5-13.68,7.34-27.45,9.55-31.43,0,0,0-17.24,3.83-24.9,0,0,7.97-4.79,12.13,0,4.15,4.79,3.96,18.39,3.96,18.39,0,0,4.98,9.39,6.89,14.17.68,1.7,2.7,9.48,5.01,18.87,38.26-5.53,72.39-10.89,115.58,4.97,30.18,11.08,81.1,11.2,134.33,3.91,13.21-11.8,25.59-26.25,26.64-36.81,1.73-17.27-65.62-24.18-53.53-88.94.65-3.51,1.21-7.03,1.69-10.56,5.37-19.84,8.24-40.59,8.24-61.97,0-140.92-123.9-255.15-276.74-255.15-21.83,0-43.08,2.34-63.45,6.75-12.49,2.11-23.98,4.95-34.12,8.36-14.76,4.97-28.99,11.77-42.54,19.98-77.75,42.17-131.19,118.36-136.24,206.39-6.56,67.1,8.39,138.54,33.28,183.34,2.08,3.74,4.16,7.33,6.23,10.81,94.87-14.7,68.67-7.57,161.62,9.7Z"/>
  <path d="M1087.07,553.96c-18.42-.73-45.86,1.13-75.94,3.41,3.58,14.86,7.08,30.18,7.08,31.19,0,1.92-12.45-22.99-14.37-27.77-1.35-3.37.63,35.05,1.91,59.08,16.33-1.14,34.02-3.95,53.72-9.74,90.51-26.64,54.99-30.37,170.19-20.91-.75-6.2.22-11.54,5.67-14.7.99-.57,2.04-1.22,3.13-1.92-1.31.05-2.61.1-3.94.14-177.61,4.81-99.77-16.89-147.46-18.78Z"/>
  <path d="M998.14,620.29c-4.63-9.4-10.24-18.81-14.44-18.33-4.34.5-8.17,9.4-11.08,18.3,8.19.31,16.66.4,25.52.03Z"/>
  <path d="M1154.52,596.12c-33.8.36-26.06,16.88-78.82,26.46-18.72,3.4-43.45,4.75-69.52,5.33.32,5.87.53,9.86.53,10.47,0,1.07-2-3.84-4.96-10.37-10.46.2-21.09.29-31.6.35-1.53,5.37-2.61,9.58-3.12,10.17-.35.41-.15-3.65.34-10.16-34.82.18-67.95.13-88.49,2.84-39.65,5.22,17.07,18.36-94.91,27.9.21,37.59-7.96,92.42-20.96,132.15-8.68,26.52-56.95,56.01-97.88,76.87-36.85,18.79-72.73,59.01-72.64,100.38l-8,112,792.44.05v-33.65c0-73.11-45.46-138.54-114-163.97-87.67-32.53-187.34-71.82-187.34-71.82-6.91-10.36-9.5-68.21-4.32-74.26,5.18-6.04,44.04,9.5,68.21,14.68,24.18,5.18,28.49,4.32,38.86-3.45,10.36-7.77,23.31-66.49,31.95-77.71,8.63-11.23,11.23-22.45,10.36-26.77s1.73-4.32,12.09-17.27c4.8-6.01,2.18-15.54-.38-24.98-36.43-1.92-66.41-5.35-77.84-5.23Z"/>
  <path d="M1245.15,590.49c-5.45-.45-10.6-.87-15.49-1.27.46,3.82,1.57,7.97,2.7,12.13,64.62,3.4,149.32,2.1,187.06-32.2,5.22-4.74,10.56-9.34,16.01-13.8.16-.13.32-.26.48-.39,9.98-8.11,20.88-14.89,32.43-20.26,16.58-7.72,22.71,5.31,31.91,18.85,7.73,11.39,19.85,19.06,33.46,21.18h0c28.47,4.44,57.35,4.91,85.83,1.47,20.75-2.51,40.99-8.22,60.09-16.69l119.33-52.93c43.42-19.26,89.55-31.7,136.77-36.89l210.75-23.17-78-11-76.96-5.66c-83.14-6.11-166.38,10.39-240.89,47.77l-77.12,38.69c-18.72,9.39-38.71,15.97-59.35,19.54-6.78,1.17-13.77,2.24-20.59,3.06-19.72,2.37-39.69-1.22-57.4-10.2l-20.21-10.25c-21.49-3.94-43.79-.12-62.46,11.24-.13.08-.26.16-.39.24-6,3.68-11.84,7.62-17.51,11.8-27.1,19.95-91.68,56.88-190.45,48.76Z"/>
  <path d="M-80.5,560.5l3,41s84.97,139.56,240,113c110.95-19.01,232-118,307-110,132.43,14.13,189.78,62.37,275.47,57.35,14.88-.87,27.79-1.79,39.01-2.75-.02-4.04-.14-7.88-.36-11.49-75.3,6.47-124.26,2.9-217.12-39.11-42-19-110.15-79.27-196-7-215,181-448.92-39.08-451-41Z"/>
  <path d="M1001.76,628c1.48-.03,2.96-.06,4.43-.09-.13-2.4-.28-5.11-.43-8.04-2.57.18-5.11.32-7.62.42,1.3,2.64,2.53,5.29,3.62,7.71Z"/>
  <path d="M968.05,620.06c-.26,3.04-.49,5.85-.67,8.3.93,0,1.85,0,2.78-.02.72-2.53,1.54-5.3,2.45-8.09-1.53-.06-3.05-.13-4.56-.2Z"/>
  <path d="M2010.5,281.5c-6.26,3.81-148.62,135.21-234,141-59.39,4.03-52.73-65.62-98.45-49.36-128.46,45.69-358.24,175.44-419.28,183.8-7.07,6.32-14.37,11.87-20.31,15.67,79.07-2.76,211.63-57.76,307.6-106.12,14.8-7.46,88.69-50.69,148.44-66.98,22-6,12.48,57.33,64.46,51.68,97.09-10.55,266.54-145.68,266.54-145.68l-15-24Z"/>
  <path d="M687.26,545.57c-130.76,6.93-125.21-3.12-184.76-32.07-84.55-41.1-226.34,16.92-360,1C-28.27,494.16-75.58,216.97-75.58,216.97l5.08,58.53c.63.74,40.99,239.41,207,259,139.39,16.45,275-29,351.89-1.7,105.34,37.41,172.6,28.99,246.89,17.74-2.33-3.65-4.68-7.46-7.04-11.42-11.68,1.81-25.01,5.59-40.98,6.44Z"/>
  <path d="M1008.86,548.06c-13.13,1.9-26.75,3.81-41.38,4.9-.67,2.64-1.34,5.27-1.97,7.83,1.53-.11,3.07-.21,4.6-.32,1.6-3.28,2.81-5.28,3.09-4.46.12.35.09,1.86-.04,4.24,12.81-.93,25.61-1.93,37.97-2.87-.76-3.17-1.53-6.33-2.27-9.32Z"/>
</svg>